<svg width="80" height="64" viewBox="0 0 80 64" fill="none" xmlns="http://www.w3.org/2000/svg">
<g clip-path="url(#clip0_1_51)">
<path d="M16.6181 0C12.0537 0 8.67619 3.995 8.82742 8.32747C8.97272 12.4896 8.78399 17.8808 7.42691 22.277C6.06576 26.686 3.76344 29.4789 0.00311279 29.8377V33.8861C3.76344 34.2448 6.06576 37.0377 7.42691 41.4471C8.78399 45.8433 8.97272 51.2338 8.82742 55.3963C8.67619 59.7281 12.0537 63.7238 16.6187 63.7238H63.3878C67.9525 63.7238 71.3291 59.7288 71.1779 55.3963C71.0329 51.2341 71.2213 45.8433 72.5784 41.4471C73.9405 37.038 76.2365 34.2445 79.9969 33.8861V29.8377C76.2365 29.4789 73.9405 26.686 72.5787 22.277C71.2213 17.8814 71.0329 12.49 71.1779 8.32747C71.3291 3.99563 67.9525 0 63.3878 0H16.6174H16.6181ZM54.2364 39.226C54.2364 45.1918 49.7867 48.8096 42.4023 48.8096H29.8314C29.4719 48.8095 29.1271 48.6667 28.8729 48.4124C28.6187 48.1581 28.4759 47.8133 28.4759 47.4538V16.27C28.4758 16.0919 28.5109 15.9156 28.579 15.751C28.6471 15.5865 28.747 15.437 28.8729 15.3111C28.9988 15.1851 29.1483 15.0852 29.3128 15.0171C29.4773 14.9489 29.6536 14.9138 29.8317 14.9138H42.3304C48.4878 14.9138 52.5287 18.2495 52.5287 23.3704C52.5287 26.9648 49.8102 30.1826 46.347 30.746V30.9338C51.0619 31.451 54.2364 34.716 54.2364 39.226ZM41.0312 19.2119H33.8639V29.3361H39.9009C44.5674 29.3361 47.141 27.4569 47.141 24.0978C47.141 20.9502 44.928 19.2119 41.0315 19.2119H41.0312ZM33.8639 33.3533V44.5103H41.2952C46.1536 44.5103 48.7277 42.5607 48.7277 38.8966C48.7277 35.2319 46.082 33.3527 40.9827 33.3527H33.8639V33.3533Z" fill="#7E13F8"/>
</g>
<defs>
<clipPath id="clip0_1_51">
<rect width="80" height="63.745" fill="white"/>
</clipPath>
</defs>
</svg>
