<svg width="64" height="80" viewBox="0 0 64 80" fill="none" xmlns="http://www.w3.org/2000/svg">
<g clip-path="url(#clip0_1_23)">
<path d="M63.8839 15.6823L58.0745 73.3798L31.961 79.7979L5.9195 73.3886L0.116138 15.6823H63.8839Z" fill="#E44D26"/>
<path d="M32 74.8919L53.101 69.7057L58.0653 20.4004H32V74.8919Z" fill="#F16529"/>
<path d="M20.7067 34.5556H32V27.4781H11.9823L12.1733 29.3769L14.1355 48.8805H32V41.803H21.4364L20.7067 34.5556ZM22.506 52.4193H14.4922L15.6105 63.532L31.9633 67.5564L32 67.5475V60.184L31.965 60.1922L23.0744 58.0639L22.506 52.4193Z" fill="#EBEBEB"/>
<path d="M6.04898 0H10.1059V3.55346H13.817V0H17.8742V10.7608H13.8173V7.15745H10.1061V10.7608H6.04923V0H6.04898ZM23.2089 3.56853H19.6379V0H30.8397V3.56853H27.2665V10.7608H23.2096V3.56853H23.2094H23.2089ZM32.6174 0H36.8475L39.4496 3.78105L42.0492 0H46.2811V10.7608H42.2407V5.42715L39.4496 9.25319H39.3796L36.5868 5.42715V10.7608H32.6174V0ZM48.3 0H52.3581V7.20399H58.0633V10.7608H48.2998V0H48.3Z" fill="black"/>
<path d="M31.9725 48.8805H41.8027L40.8759 58.0594L31.9723 60.1899V67.5531L48.338 63.532L48.458 62.3362L50.3342 43.7035L50.5289 41.803H31.9725V48.8805ZM31.9725 34.5383V34.5556H51.2553L51.4153 32.9649L51.7792 29.3769L51.9699 27.4781H31.9725V34.5385V34.5383Z" fill="white"/>
</g>
<defs>
<clipPath id="clip0_1_23">
<rect width="64" height="80" fill="white"/>
</clipPath>
</defs>
</svg>
