<svg width="57" height="60" viewBox="0 0 57 60" fill="none" xmlns="http://www.w3.org/2000/svg">
<g clip-path="url(#clip0_3_75)">
<path d="M47.9275 51.1237H39.593V37.2011C39.593 33.8812 39.5374 29.6073 35.2583 29.6073C30.9174 29.6073 30.2531 33.2247 30.2531 36.9594V51.1227H21.9189V22.4924H29.9198V26.4051H30.0319C30.8326 24.9447 31.9896 23.7433 33.3798 22.9289C34.77 22.1144 36.3412 21.7174 37.9262 21.7801C46.3736 21.7801 47.931 27.707 47.931 35.4175L47.9275 51.1237ZM12.5146 18.5791C9.84338 18.5795 7.67753 16.27 7.67709 13.4207C7.67665 10.5714 9.84162 8.26116 12.5128 8.2607C15.1841 8.25999 17.3499 10.5695 17.3503 13.4188C17.3506 14.7871 16.8412 16.0995 15.9344 17.0672C15.0275 18.0349 13.7974 18.5787 12.5146 18.5791ZM16.6819 51.1239H8.33869V22.4924H16.6817L16.6819 51.1239ZM52.0825 0.00436685H4.1507C1.88532 -0.0228206 0.027533 1.91288 -0.000152588 4.32929V55.6698C0.0266541 58.0874 1.88422 60.025 4.15048 59.9997H52.0825C54.3536 60.0297 56.2184 58.0921 56.2498 55.6698V4.3253C56.2175 1.90421 54.3525 -0.0312582 52.0825 0.000382475" fill="#0A66C2"/>
</g>
<defs>
<clipPath id="clip0_3_75">
<rect width="56.25" height="60" fill="white"/>
</clipPath>
</defs>
</svg>
