<svg width="80" height="80" viewBox="0 0 80 80" fill="none" xmlns="http://www.w3.org/2000/svg">
<path d="M10 50V30H21.6667C23 30 24.1667 30.5 25.1667 31.5C26.1667 32.5 26.6667 33.6667 26.6667 35V38.3333C26.6667 39.6667 26.1667 40.8333 25.1667 41.8333C24.1667 42.8333 23 43.3333 21.6667 43.3333H15V50H10ZM31.6667 50V30H36.6667V36.6667H43.3333V30H48.3333V50H43.3333V41.6667H36.6667V50H31.6667ZM55 50V30H66.6667C68 30 69.1667 30.5 70.1667 31.5C71.1667 32.5 71.6667 33.6667 71.6667 35V38.3333C71.6667 39.6667 71.1667 40.8333 70.1667 41.8333C69.1667 42.8333 68 43.3333 66.6667 43.3333H60V50H55ZM15 38.3333H21.6667V35H15V38.3333ZM60 38.3333H66.6667V35H60V38.3333Z" fill="#699BF7"/>
</svg>
