<svg width="80" height="80" viewBox="0 0 80 80" fill="none" xmlns="http://www.w3.org/2000/svg">
<path fill-rule="evenodd" clip-rule="evenodd" d="M40 2.24532L74.6667 22.4693V57.5307L40 77.76L5.33333 57.5307V22.4693L40 2.23999V2.24532ZM40 21.3333C35.0493 21.3333 30.3014 23.3 26.8007 26.8007C23.3 30.3013 21.3333 35.0493 21.3333 40C21.3333 44.9507 23.3 49.6986 26.8007 53.1993C30.3014 56.7 35.0493 58.6667 40 58.6667H40.9707C46.176 58.6667 51.1733 56.5973 54.8587 52.9173L55.2213 52.5547L51.4453 48.7787L51.0827 49.1413C48.4011 51.8241 44.7638 53.332 40.9707 53.3333H40C36.4638 53.3333 33.0724 51.9286 30.5719 49.4281C28.0714 46.9276 26.6667 43.5362 26.6667 40C26.6667 36.4638 28.0714 33.0724 30.5719 30.5719C33.0724 28.0714 36.4638 26.6667 40 26.6667H40.9707C44.7627 26.6667 48.4 28.176 51.0827 30.8587L51.4453 31.2213L55.2213 27.4453L54.8587 27.0827C53.0347 25.2593 50.8694 23.8131 48.4865 22.8266C46.1036 21.8401 43.5497 21.3327 40.9707 21.3333H40Z" fill="#FFC700"/>
</svg>
