<svg width="80" height="80" viewBox="0 0 80 80" fill="none" xmlns="http://www.w3.org/2000/svg">
<path d="M40.69 54.26C37.8696 57.0335 34.2901 58.9084 30.4042 59.6476C26.5183 60.3868 22.5004 59.9571 18.8587 58.4129C15.2169 56.8686 12.1149 54.2791 9.94491 50.9718C7.77488 47.6646 6.6343 43.7881 6.66739 39.8326C6.70049 35.8771 7.90578 32.0203 10.1309 28.7498C12.3559 25.4793 15.5008 22.9421 19.1679 21.459C22.8349 19.9759 26.8594 19.6135 30.7325 20.4176C34.6055 21.2217 38.1531 23.1563 40.9266 25.9766L45.64 21.2633C41.934 17.5108 37.1984 14.9415 32.0322 13.8803C26.866 12.8192 21.5012 13.3137 16.616 15.3015C11.7309 17.2893 7.54493 20.6811 4.5874 25.0478C1.62988 29.4146 0.0336445 34.5603 0.000548178 39.8343C-0.0325481 45.1083 1.49898 50.2736 4.40147 54.6772C7.30395 59.0807 11.447 62.5247 16.3068 64.5737C21.1666 66.6226 26.5249 67.1845 31.704 66.1882C36.8831 65.192 41.6505 62.6823 45.4033 58.9766L40.69 54.26Z" fill="#699BF7"/>
<path d="M50 30H43.3333V36.6667H36.6667V43.3333H43.3333V50H50V43.3333H56.6667V36.6667H50V30ZM66.6667 30H73.3333V36.6667H80V43.3333H73.3333V50H66.6667V43.3333H60V36.6667H66.6667V30Z" fill="#699BF7"/>
</svg>
