<svg width="80" height="80" viewBox="0 0 80 80" fill="none" xmlns="http://www.w3.org/2000/svg">
<path d="M46.6667 6.66663H20C18.2319 6.66663 16.5362 7.369 15.286 8.61925C14.0357 9.86949 13.3333 11.5652 13.3333 13.3333V66.6666C13.3333 68.4347 14.0357 70.1304 15.286 71.3807C16.5362 72.6309 18.2319 73.3333 20 73.3333H60C61.7681 73.3333 63.4638 72.6309 64.714 71.3807C65.9643 70.1304 66.6667 68.4347 66.6667 66.6666V26.6666L46.6667 6.66663ZM31.4867 58.04C32.4033 58.04 33.4233 57.8366 34.0267 57.6L34.4867 59.9766C33.9267 60.2566 32.6667 60.5566 31.03 60.5566C26.3733 60.5566 23.9733 57.66 23.9733 53.82C23.97 49.2266 27.25 46.6666 31.3267 46.6666C32.9067 46.6666 34.1033 46.9866 34.6433 47.2666L34.0233 49.6866C33.2115 49.3525 32.3412 49.1836 31.4633 49.19C29.0433 49.19 27.1633 50.65 27.1633 53.6466C27.1667 56.34 28.77 58.04 31.4867 58.04ZM39.79 60.5566C38.2533 60.5566 36.7333 60.16 35.9733 59.74L36.5933 57.22C37.4133 57.64 38.6733 58.06 39.9733 58.06C41.3733 58.06 42.1133 57.48 42.1133 56.6C42.1133 55.76 41.4733 55.28 39.8533 54.7C37.6133 53.92 36.1567 52.6833 36.1567 50.7233C36.1567 48.4266 38.0733 46.6666 41.2533 46.6666C42.77 46.6666 43.89 46.9866 44.69 47.3433L44.01 49.8033C43.1312 49.3775 42.1665 49.1586 41.19 49.1633C39.87 49.1633 39.2333 49.7666 39.2333 50.4633C39.2333 51.3233 39.9933 51.7033 41.73 52.3633C44.11 53.2433 45.23 54.4833 45.23 56.38C45.2267 58.64 43.4867 60.5566 39.79 60.5566ZM50.59 60.5566C49.0533 60.5566 47.5333 60.16 46.7733 59.74L47.3933 57.22C48.2133 57.64 49.4733 58.06 50.7733 58.06C52.1733 58.06 52.9133 57.48 52.9133 56.6C52.9133 55.76 52.2733 55.28 50.6533 54.7C48.4133 53.92 46.9567 52.6833 46.9567 50.7233C46.9567 48.4266 48.8733 46.6666 52.0533 46.6666C53.57 46.6666 54.69 46.9866 55.49 47.3433L54.81 49.8033C53.9312 49.3775 52.9665 49.1586 51.99 49.1633C50.67 49.1633 50.0333 49.7666 50.0333 50.4633C50.0333 51.3233 50.7933 51.7033 52.53 52.3633C54.91 53.2433 56.03 54.4833 56.03 56.38C56.03 58.64 54.2867 60.5566 50.59 60.5566ZM46.6667 30H43.3333V13.3333L60 30H46.6667Z" fill="#699BF7"/>
</svg>
