<svg width="80" height="100" viewBox="0 0 80 100" fill="none" xmlns="http://www.w3.org/2000/svg">
<g clip-path="url(#clip0_1_30)">
<path d="M25.8004 77.3044C25.8004 77.3044 21.6766 79.5226 28.7352 80.2732C37.2867 81.1755 41.6569 81.0463 51.0808 79.3963C51.0808 79.3963 53.5585 80.8333 57.0183 82.0781C35.8931 90.4529 9.20732 81.5928 25.8004 77.3044ZM23.2189 66.3755C23.2189 66.3755 18.5937 69.5425 25.6576 70.2183C34.7924 71.0899 42.0063 71.1613 54.4893 68.9379C54.4893 68.9379 56.2159 70.557 58.9308 71.4425C33.3889 78.3512 4.93986 71.9873 23.2189 66.3755Z" fill="#5382A1"/>
<path d="M44.9811 47.8367C50.1865 53.38 43.6135 58.3685 43.6135 58.3685C43.6135 58.3685 56.8305 52.0572 50.7605 44.1537C45.0914 36.7838 40.7436 33.1214 64.2796 20.4954C64.2796 20.4954 27.336 29.03 44.9811 47.8364" fill="#E76F00"/>
<path d="M72.9211 85.3878C72.9211 85.3878 75.9728 87.7136 69.5601 89.513C57.3663 92.93 18.808 93.9618 8.09655 89.6491C4.24621 88.1 11.467 85.9497 13.7382 85.4983C16.1069 85.0231 17.4607 85.1118 17.4607 85.1118C13.1786 82.3214 -10.2172 90.5907 5.57694 92.9587C48.6493 99.4199 84.0934 90.0494 72.9211 85.3878ZM27.7832 55.052C27.7832 55.052 8.17029 59.3613 20.838 60.9257C26.1865 61.5881 36.8489 61.4384 46.7808 60.6685C54.8977 60.0355 63.048 58.6887 63.048 58.6887C63.048 58.6887 60.1859 59.8225 58.1153 61.1303C38.1984 65.9757 -0.277455 63.7217 10.7993 58.7653C20.1669 54.5769 27.7835 55.052 27.7835 55.052M62.967 73.2433C83.2139 63.5116 73.8525 54.1595 67.3185 55.4196C65.7169 55.7277 65.003 55.9948 65.003 55.9948C65.003 55.9948 65.5976 55.1335 66.733 54.7607C79.6591 50.5569 89.6004 67.1587 62.5602 73.7338C62.5602 73.7341 62.8736 73.4751 62.967 73.2433Z" fill="#5382A1"/>
<path d="M50.7605 0.107223C50.7605 0.107223 61.9734 10.4829 40.1256 26.437C22.6061 39.2353 36.1306 46.5324 40.1184 54.8696C29.8919 46.335 22.3868 38.8217 27.422 31.8292C34.8117 21.5642 55.2845 16.5876 50.7605 0.106934" fill="#E76F00"/>
<path d="M29.7729 99.6141C49.207 100.765 79.0502 98.9757 79.7569 90.4696C79.7569 90.4696 78.3984 93.6945 63.6957 96.2552C47.1083 99.1424 26.6502 98.8054 14.5162 96.9549C14.5165 96.9549 17.0002 98.8566 29.7732 99.6141" fill="#5382A1"/>
</g>
<defs>
<clipPath id="clip0_1_30">
<rect width="80" height="100" fill="white"/>
</clipPath>
</defs>
</svg>
