<svg width="80" height="80" viewBox="0 0 80 80" fill="none" xmlns="http://www.w3.org/2000/svg">
<g clip-path="url(#clip0_172_27)">
<path d="M0 0H80V80H0V0Z" fill="#F7DF1E"/>
<path d="M37.0002 69.2251L41.2954 66.6515C42.1242 68.1061 42.8779 69.3369 44.6861 69.3369C46.4193 69.3369 47.5123 68.6657 47.5123 66.0547V48.2987H52.7869V66.1285C52.7869 71.5373 49.5845 73.9993 44.9122 73.9993C40.6927 73.9993 38.2434 71.8358 37 69.2246M55.6518 68.6655L59.9466 66.2036C61.0772 68.0316 62.5467 69.3744 65.1461 69.3744C67.3319 69.3744 68.7254 68.2925 68.7254 66.8004C68.7254 65.01 67.2937 64.3757 64.8824 63.3316L63.564 62.7715C59.7584 61.168 57.2342 59.1536 57.2342 54.9012C57.2342 50.9843 60.2482 48 64.958 48C68.3113 48 70.7226 49.1566 72.4556 52.178L68.3485 54.7894C67.4441 53.1854 66.4649 52.5513 64.9578 52.5513C63.4129 52.5513 62.4333 53.5212 62.4333 54.7894C62.4333 56.356 63.4129 56.9905 65.6734 57.9603L66.992 58.5197C71.4757 60.4224 74 62.3619 74 66.7259C74 71.4264 70.2701 74 65.259 74C60.3612 74 57.1962 71.6873 55.6516 68.6657" fill="black"/>
<path d="M40.411 -2.625H-2.411C-3.63376 -2.625 -4.625 -1.63376 -4.625 -0.411V42.411C-4.625 43.6338 -3.63376 44.625 -2.411 44.625H40.411C41.6338 44.625 42.625 43.6338 42.625 42.411V-0.411C42.625 -1.63376 41.6338 -2.625 40.411 -2.625Z" fill="#3178C6"/>
<path fill-rule="evenodd" clip-rule="evenodd" d="M21.7884 34.0933V39.2706C22.7291 39.7349 23.7316 40.0616 24.7652 40.2409C25.9596 40.4614 27.172 40.5699 28.3866 40.5649C29.5703 40.5705 30.7514 40.4512 31.9101 40.2088C32.9504 39.9986 33.943 39.5982 34.8379 39.0276C35.6687 38.4913 36.3535 37.7572 36.8308 36.8912C37.6857 35.0979 37.7985 33.0398 37.1447 31.1638C36.8688 30.4623 36.4577 29.8219 35.9348 29.2789C35.3735 28.7015 34.7359 28.2036 34.0397 27.799C33.2382 27.3295 32.4054 26.9157 31.5473 26.5603C30.8723 26.2802 30.2648 26.008 29.7248 25.7436C29.2451 25.5139 28.7861 25.2435 28.3528 24.9353C28.0134 24.6973 27.7187 24.4014 27.4821 24.0611C27.2776 23.7522 27.1712 23.3887 27.1766 23.0183C27.1721 22.6773 27.2671 22.3425 27.45 22.0547C27.6486 21.7535 27.9136 21.5018 28.2246 21.319C28.6047 21.0951 29.0184 20.9339 29.4497 20.8414C29.9792 20.7237 30.5205 20.6671 31.0629 20.6726C31.5191 20.6742 31.9747 20.7069 32.4264 20.7705C32.9143 20.8365 33.397 20.9363 33.8709 21.0692C34.3531 21.2028 34.8246 21.372 35.2817 21.5755C35.7252 21.7732 36.1495 22.0116 36.549 22.2876V17.4563C35.7173 17.1416 34.8547 16.9153 33.9756 16.7813C32.914 16.6268 31.8421 16.554 30.7693 16.5636C29.5967 16.5573 28.4275 16.6904 27.2863 16.9601C26.2548 17.1958 25.274 17.6148 24.3906 18.1971C23.5699 18.7438 22.8923 19.4793 22.4145 20.3419C21.9082 21.2998 21.6577 22.3722 21.6872 23.4553C21.6498 24.8877 22.1216 26.2868 23.0186 27.4041C24.1192 28.6428 25.507 29.5926 27.0602 30.1699C27.7689 30.4624 28.4299 30.7487 29.043 31.0288C29.5962 31.275 30.1279 31.5668 30.6326 31.9013C31.0397 32.1661 31.3973 32.5002 31.689 32.8885C31.9455 33.2406 32.0816 33.6661 32.0771 34.1018C32.0795 34.4282 31.9956 34.7495 31.8341 35.0333C31.6547 35.3382 31.4025 35.5938 31.1001 35.7775C30.7217 36.0081 30.3077 36.1746 29.8749 36.2702C29.3112 36.3962 28.7347 36.4557 28.1571 36.4474C27.0236 36.4453 25.8992 36.2454 24.8344 35.8568C23.722 35.4554 22.6904 34.8581 21.7884 34.0933ZM13.0911 21.2042H19.8411V16.9399H1.02039V21.2042H7.74001V40.1953H13.0911V21.2042Z" fill="white"/>
<path d="M83.036 -2.62H40.214C38.9912 -2.62 38 -1.62875 38 -0.405995V42.416C38 43.6388 38.9912 44.63 40.214 44.63H83.036C84.2588 44.63 85.25 43.6388 85.25 42.416V-0.405995C85.25 -1.62875 84.2588 -2.62 83.036 -2.62Z" fill="#3178C6"/>
</g>
<defs>
<clipPath id="clip0_172_27">
<rect width="80" height="80" fill="white"/>
</clipPath>
</defs>
</svg>
