<svg width="62" height="60" viewBox="0 0 62 60" fill="none" xmlns="http://www.w3.org/2000/svg">
<g clip-path="url(#clip0_181_17)">
<path d="M14.0919 59.7047V28.9555L6.66324 20.2312L0.00177002 15.3899V54.2783C0.00177002 57.2808 1.89678 59.7047 4.22891 59.7047H14.0919Z" fill="#4285F4"/>
<path d="M47.9081 59.7046H57.7711C60.1103 59.7046 61.9982 57.2717 61.9982 54.2782V15.3901L54.4531 20.9353L47.9081 28.9554V59.7046Z" fill="#34A853"/>
<path d="M14.0919 28.9554L13.0811 16.9408L14.0919 5.44165L31 21.7206L47.9081 5.44165L49.0388 16.32L47.9081 28.9554L31 45.2344L14.0919 28.9554Z" fill="#EA4335"/>
<path d="M47.9081 5.44156V28.9553L61.9982 15.3897V8.15462C61.9982 1.44426 56.0311 -2.38113 51.8536 1.64322L47.9081 5.44156Z" fill="#FBBC04"/>
<path d="M0.00177002 15.3899L6.4821 21.6293L14.0919 28.9555V5.4417L10.1464 1.64336C5.96167 -2.3813 0.00177002 1.4444 0.00177002 8.15445V15.3896V15.3899Z" fill="#C5221F"/>
</g>
<defs>
<clipPath id="clip0_181_17">
<rect width="62" height="60" fill="white"/>
</clipPath>
</defs>
</svg>
